<svg xmlns="http://www.w3.org/2000/svg" viewBox="0 0 256 256" role="img" aria-label="DZG cozy pixel shop icon" shape-rendering="crispEdges">
  <rect width="256" height="256" rx="40" fill="#8fd6c8"/>
  <rect x="24" y="24" width="208" height="208" rx="24" fill="#f8dfa4"/>
  <rect x="24" y="160" width="208" height="72" fill="#8ec07c"/>
  <rect x="56" y="172" width="144" height="20" fill="#5f8f58"/>
  <rect x="60" y="88" width="136" height="88" fill="#b87945"/>
  <rect x="68" y="96" width="120" height="72" fill="#f0b66b"/>
  <rect x="76" y="72" width="104" height="24" fill="#6aa84f"/>
  <rect x="84" y="64" width="88" height="16" fill="#9bcf6b"/>
  <rect x="76" y="96" width="24" height="20" fill="#fff1b8"/>
  <rect x="100" y="96" width="24" height="20" fill="#e8744f"/>
  <rect x="124" y="96" width="24" height="20" fill="#fff1b8"/>
  <rect x="148" y="96" width="24" height="20" fill="#e8744f"/>
  <rect x="76" y="128" width="104" height="40" fill="#6b4226"/>
  <rect x="88" y="136" width="32" height="24" fill="#ffd66b"/>
  <rect x="136" y="136" width="32" height="24" fill="#ffd66b"/>
  <rect x="100" y="144" width="8" height="8" fill="#4a2d1c"/>
  <rect x="148" y="144" width="8" height="8" fill="#4a2d1c"/>
  <rect x="120" y="152" width="16" height="8" fill="#e8744f"/>
  <rect x="180" y="56" width="12" height="12" fill="#fff1b8"/>
  <rect x="192" y="68" width="12" height="12" fill="#fff1b8"/>
  <rect x="40" y="56" width="12" height="12" fill="#fff1b8"/>
  <rect x="52" y="44" width="12" height="12" fill="#fff1b8"/>
</svg>
