<svg xmlns="http://www.w3.org/2000/svg" viewBox="0 0 960 220" role="img" aria-label="pixel farm banner">
  <rect width="960" height="220" fill="#68bde8"/>
  <rect y="74" width="960" height="146" fill="#79b85a"/>
  <path d="M0 78 96 20l88 58 94-50 116 66 112-76 126 80 92-52 122 64 114-48 100 52v106H0z" fill="#2e8f56"/>
  <path d="M0 104 88 58l78 46 84-38 98 54 98-56 108 62 84-40 106 52 94-36 122 54v64H0z" fill="#226f48"/>
  <rect y="136" width="960" height="84" fill="#c97830"/>
  <path d="M0 150h960v18H0z" fill="#a85d25"/>
  <g fill="#6d3f1c">
    <rect x="32" y="124" width="12" height="44"/>
    <rect x="78" y="124" width="12" height="44"/>
    <rect x="124" y="124" width="12" height="44"/>
    <rect x="170" y="124" width="12" height="44"/>
    <rect x="216" y="124" width="12" height="44"/>
    <rect x="262" y="124" width="12" height="44"/>
    <rect x="308" y="124" width="12" height="44"/>
    <rect x="354" y="124" width="12" height="44"/>
    <rect x="400" y="124" width="12" height="44"/>
    <rect x="446" y="124" width="12" height="44"/>
    <rect x="492" y="124" width="12" height="44"/>
    <rect x="538" y="124" width="12" height="44"/>
    <rect x="584" y="124" width="12" height="44"/>
    <rect x="630" y="124" width="12" height="44"/>
    <rect x="676" y="124" width="12" height="44"/>
  </g>
  <rect x="24" y="136" width="690" height="10" fill="#9a5a24"/>
  <rect x="24" y="154" width="690" height="10" fill="#9a5a24"/>
  <g>
    <rect x="760" y="78" width="86" height="78" fill="#a86530"/>
    <rect x="748" y="62" width="110" height="32" fill="#c74b26"/>
    <rect x="776" y="112" width="24" height="44" fill="#5c3219"/>
    <rect x="812" y="104" width="18" height="18" fill="#f8d27c"/>
    <rect x="814" y="106" width="14" height="14" fill="#69b7d9"/>
    <rect x="760" y="154" width="98" height="10" fill="#6d3f1c"/>
  </g>
  <g fill="#fff3d1">
    <rect x="124" y="34" width="48" height="18"/>
    <rect x="146" y="22" width="52" height="26"/>
    <rect x="188" y="36" width="46" height="18"/>
    <rect x="520" y="28" width="54" height="18"/>
    <rect x="552" y="18" width="48" height="24"/>
    <rect x="594" y="34" width="44" height="18"/>
  </g>
  <g fill="#2e8f56">
    <rect x="40" y="176" width="22" height="28"/>
    <rect x="64" y="166" width="28" height="38"/>
    <rect x="94" y="180" width="20" height="24"/>
    <rect x="840" y="170" width="24" height="34"/>
    <rect x="866" y="160" width="30" height="44"/>
    <rect x="900" y="178" width="24" height="26"/>
  </g>
</svg>
